<svg xmlns="http://www.w3.org/2000/svg" width="252" height="76">
  <g fill="var(--black)">
    <path
      d="M56 62.2c0-.1 0-.2.1-.2.6-.5 1.1-1 1.7-1.5.6-.5 1.2-.9 1.9-1.4.5-.3.9-.5 1.3-.4.4 0 .7.3 1.1.7.7.8.8 1.6.5 2.5-.2.3-.3.5-.4.7.1.2.2.2.3.2h.4c2.6 0 5.3 0 8-.2s5.3-.4 8-.7c1.4-.1 2.8-.4 4.4-.8.9-.2 1.7-.5 2.6-.7.8-.2 1.7-.4 2.6-.7.4-.2.8-.1 1.2.3.1.1.1.2.1.3 0 .1-.1.2-.2.2l-1 .4c-.8.2-1.7.4-2.4.6-.8.2-1.6.5-2.4.7-1.2.3-2.4.6-3.6.7-1.2.1-2.5.3-3.7.4-1.1.1-2.2.2-3.3.2-1.1.1-2.2.1-3.3.2-.6.1-1.1.1-1.7.1H58.8c-.2 0-.4-.1-.5-.3-.3-.3-.3-.5.1-.7.7-.2 1.5-.4 2.2-.8.5-.4.9-.7 1-1.1 0-.2.1-.3.1-.5s-.1-.3-.2-.4c-.2-.2-.3-.2-.5-.1s-.3.2-.4.3c-.4.3-.8.6-1.2.8-.4.3-.7.6-1.1.9-1.5 1.3-3 2.7-4.5 4-1.5 1.4-2.9 2.7-4.3 4.1-.1.2-.3.3-.4.5-.2.1-.3.3-.5.5-.4.3-.6.4-.9.1-.4-.3-.5-.6-.3-.9.1-.2.2-.4.4-.6 1.4-1.8 2.8-3.5 4.2-5.2 1.4-1.7 2.8-3.4 4.2-5.2.1-.2.3-.4.5-.6.2-.3.5-.3.8-.2.2.1.4.2.4.4.1.2.1.4 0 .5-.2.3-.5.6-.7.9-.3.3-.5.6-.7.9-.1.1-.2.2-.2.3-.1.1-.1.2-.2.3-.3.2-.3.4-.1.5-.1.1-.3.2-.5.3-.1.1-.1.1-.2.1v-.1l.1-.1s0 .1.1.1c.1-.2.3-.3.5-.3z"
    />
    <path
      d="M103.7 62.8h-1.6c-.6-.1-1-.3-1.2-.7-.2-.4-.2-.8.1-1.3.1-.3.3-.6.5-.8.2-.2.4-.5.5-.8.1-.2.1-.3 0-.4-.1-.1-.2-.1-.5-.1-.4 0-.7.1-1 .2-.3.1-.6.2-1 .3-1 .4-2 .7-3 1.1-1 .4-2 .8-3 1.1l-1.8.6c-.6.2-1.2.3-1.8.4-.5.1-1.1.2-1.7.2-.6 0-1-.3-1.2-.7-.2-.4-.2-.8.2-1.3.2-.3.5-.7 1-1 .7-.6 1.5-1.3 2.3-1.9.8-.6 1.6-1.3 2.3-1.9 2.6-2 5.2-4 7.7-5.9 2.6-2 5.1-3.9 7.7-5.9.1-.1.2-.2.3-.2.1-.1.2-.1.3-.2.4-.3.8-.2 1.1.2.2.2.2.4 0 .6-.2.2-.4.4-.6.5-.2.1-.4.3-.6.4-2.8 2.2-5.5 4.3-8.2 6.4-2.7 2.1-5.4 4.2-8.2 6.4-.6.4-1.1.9-1.7 1.3-.5.4-1.1.8-1.6 1.3l-.3.3-.3.3c-.1.1-.1.1 0 .2 0 .1.1.1.2.1.5 0 1.1-.1 1.9-.4.6-.2 1.2-.4 1.9-.7.6-.2 1.3-.5 1.9-.7.7-.3 1.5-.6 2.3-.8.8-.3 1.5-.5 2.3-.8.8-.3 1.6-.4 2.3-.5.6 0 1.1.2 1.6.6.4.5.5 1 .2 1.7-.1.2-.2.4-.4.6-.2.2-.3.4-.4.6-.2.4-.1.7.3.7s.9-.1 1.3-.1.8 0 1.2-.1c2.2-.2 4.3-.5 6.5-.8 2.2-.3 4.3-.7 6.5-1.1.2 0 .4-.1.6-.1.2 0 .4-.1.6-.1.3 0 .5 0 .6.1.3.1.4.3.4.5s-.1.3-.3.4c-.3.1-.5.1-.6.1-4.1.9-8.3 1.6-12.5 2-.5.1-1 .2-1.6.2-.5-.1-1-.1-1.5-.1z"
    />
    <path
      d="M125.5 61.4c.4.1.7.2.9.2.3 0 .6.1.9.1.7 0 1.5 0 2.2-.1.7-.1 1.4-.1 2.2-.2 1.4-.2 2.7-.4 4-.5 1.3-.2 2.7-.3 4.1-.3 1.1 0 2.1-.2 3.2-.4s2.1-.4 3.1-.7c.2-.1.4-.1.5-.1.2 0 .4 0 .5-.1.3 0 .6.1.9.5.1.2 0 .4-.3.5-.1 0-.3.1-.4.1-.1 0-.3.1-.5.1-1.1.3-2.1.5-3.2.7-1.1.2-2.2.3-3.3.3-1.4 0-2.7.2-4 .3-1.3.2-2.7.4-4 .5-1 .1-1.9.2-2.9.3-.9.1-1.9 0-2.9-.1-.4-.1-.7-.1-1-.2s-.6-.1-.9-.2c-.5-.1-1-.1-1.5.1s-.9.3-1.4.3c-.4 0-.9 0-1.4-.1-.5 0-1-.2-1.5-.6-.4-.4-.6-.8-.6-1.2s.2-.8.5-1.1c.2-.2.5-.4.8-.6.3-.2.6-.3 1-.4.5-.2 1-.4 1.7-.8.9-.6 1.8-.6 2.7-.2.9.4 1.6 1.1 1.9 2 0 .3-.1.6-.3.8-.1.2-.3.4-.5.5-.1.2-.3.4-.5.6zm-4.6-1.5c-.3.1-.5.2-.7.4-.8.4-1 .8-.7 1.1.2.2.4.2.6.2H121.4c.2 0 .4-.1.5-.2.1-.2.1-.4-.1-.5-.2-.1-.3-.3-.4-.4 0-.1-.1-.2-.1-.3 0-.2-.1-.3-.4-.3zm3.7-1.5c-.3 0-.7.2-1.2.5-.6.3-.9.6-1 .8-.1.2-.1.5 0 .7.1.2.2.4.4.5.2.1.4.1.5 0 .9-.3 1.6-.8 2.2-1.3.3-.3.2-.6-.1-.8-.2-.3-.5-.4-.8-.4z"
    />
    <path
      d="M155.3 52.6c-.7-.2-1.4-.3-2-.3-.6 0-1.2.1-1.8.1-.8.1-1.5.2-2.3.3-.8.1-1.5.3-2.3.5-.5.1-.9 0-1.1-.4-.1-.2-.1-.4.1-.5.2-.1.4-.2.8-.2 1.5-.4 2.9-.6 4.4-.7 1.5-.1 2.9 0 4.4.2.7.1 1.3 0 1.8-.4l9.1-6.8c.2-.1.4-.2.6-.4.2-.1.4-.3.6-.5.3-.2.6-.1.9.1.3.4.3.6 0 .8-.1.1-.3.2-.4.3-.1.1-.3.2-.4.3-1.3 1-2.6 2-4 3-1.3 1-2.7 2-4 3-.2.1-.3.2-.5.4-.2.1-.3.3-.4.5.1.2.2.2.3.2h.3c.9.1 1.8.1 2.7.1s1.8 0 2.7-.1c.2 0 .4-.1.6-.1h.6c.3 0 .5.1.7.4.1.1.1.2.1.4 0 .1-.1.2-.3.2h-.8c-1.3 0-2.5.1-3.8.1-1.3 0-2.5-.1-3.8-.3-.6-.1-1 0-1.4.4-1.4 1-2.7 2.1-4.1 3.1-1.3 1.1-2.7 2.2-3.9 3.3-.2.2-.4.4-.6.5-.2.2-.4.3-.5.5-.2.2-.4.5-.5.9 0 .4.2.5.5.5h1.7c1-.1 1.9-.2 2.8-.3.9-.1 1.9-.2 2.8-.3 1.4-.2 2.8-.3 4.3-.5 1.4-.2 2.9-.3 4.3-.5s2.7-.4 4.1-.5c1.4-.1 2.8-.3 4.2-.5.5-.1 1.1-.1 1.6-.1s1-.1 1.5-.2.9.1 1.2.4c.1.1.1.2.1.3 0 .1-.1.2-.3.2-.4.1-.7.1-1 .2-.3 0-.7.1-1 .1-2.8.3-5.5.6-8.2.9-2.7.3-5.5.6-8.2.9-1.2.1-2.5.2-3.7.4-1.2.1-2.4.2-3.6.4-.4 0-.9.1-1.3.1s-.8 0-1.1-.1c-.9-.2-1.4-.6-1.7-1.2-.2-.6-.1-1.3.4-2l.5-.5c.2-.2.4-.3.6-.5 1-.9 2.1-1.8 3.1-2.7 1.1-.9 2.2-1.7 3.3-2.6.2-.2.4-.3.6-.5.2.2.4 0 .7-.3z"
    />
    <path
      d="M181 61.4c.4.1.7.2.9.2.3 0 .6.1.9.1.7 0 1.5 0 2.2-.1.7-.1 1.4-.1 2.2-.2 1.4-.2 2.7-.4 4-.5 1.3-.2 2.7-.3 4.1-.3 1.1 0 2.1-.2 3.2-.4s2.1-.4 3.1-.7c.2-.1.4-.1.5-.1.2 0 .4 0 .5-.1.3 0 .6.1.9.5.1.2 0 .4-.3.5-.1 0-.3.1-.4.1-.1 0-.3.1-.5.1-1.1.3-2.1.5-3.2.7-1.1.2-2.2.3-3.3.3-1.4 0-2.7.2-4 .3-1.3.2-2.7.4-4 .5-1 .1-1.9.2-2.9.3-.9.1-1.9 0-2.9-.1-.4-.1-.7-.1-1-.2s-.6-.1-.9-.2c-.5-.1-1-.1-1.5.1s-.9.3-1.4.3c-.4 0-.9 0-1.4-.1-.5 0-1-.2-1.5-.6-.4-.4-.6-.8-.6-1.2s.2-.8.5-1.1c.2-.2.5-.4.8-.6.3-.2.6-.3 1-.4.5-.2 1-.4 1.7-.8.9-.6 1.8-.6 2.7-.2.9.4 1.6 1.1 1.9 2 0 .3-.1.6-.3.8-.1.2-.3.4-.5.5 0 .2-.2.4-.5.6zm-4.5-1.5c-.3.1-.5.2-.7.4-.8.4-1 .8-.7 1.1.2.2.4.2.6.2H177c.2 0 .4-.1.5-.2.1-.2.1-.4-.1-.5-.2-.1-.3-.3-.4-.4 0-.1-.1-.2-.1-.3-.1-.2-.2-.3-.4-.3zm3.7-1.5c-.3 0-.7.2-1.2.5-.6.3-.9.6-1 .8-.1.2-.1.5 0 .7.1.2.2.4.4.5.2.1.4.1.5 0 .9-.3 1.6-.8 2.2-1.3.3-.3.2-.6-.1-.8-.2-.3-.5-.4-.8-.4z"
    />
    <path
      d="M47.7 6.9l-3.3 3.7c-.1.1-.3.2-.4.3-.1.1-.3.1-.5.1H42l2.1-3.5c.1-.2.3-.4.4-.5.2-.1.4-.1.7-.1h2.5z"
    />
    <path
      class="st1"
      d="M23.6 15.8v20.5h-1.4c-.2 0-.4 0-.5-.1s-.3-.2-.4-.4L9.4 20.4V36.3H7.1V15.8h1.7c.1 0 .2 0 .2.1.1 0 .1.1.2.1s.1.1.2.2l11.8 15.4v-.7-15.1h2.4zM50 34v2.3H37.4V15.8H50v2.3h-9.8v6.8h8v2.2h-8v7H50zM77.6 36.3h-2.5c-.5 0-.9-.2-1.1-.6l-5.3-7.3c-.2-.2-.3-.4-.5-.5s-.5-.1-.9-.1h-2.1v8.5h-2.8V15.8h5.8c1.3 0 2.4.1 3.4.4.9.3 1.7.6 2.3 1.1.6.5 1.1 1.1 1.4 1.8.3.7.4 1.5.4 2.3 0 .7-.1 1.4-.3 2-.2.6-.6 1.2-1 1.7s-1 .9-1.6 1.3c-.6.4-1.3.6-2.1.8.4.2.7.5.9.9l6 8.2zm-9.5-10.6c.8 0 1.5-.1 2.1-.3.6-.2 1.1-.5 1.5-.8s.7-.8.9-1.3c.2-.5.3-1 .3-1.6 0-1.2-.4-2.1-1.2-2.8-.8-.6-2-.9-3.6-.9h-3v7.7h3zM96.7 34.1c.8 0 1.6-.1 2.3-.4.7-.3 1.2-.7 1.7-1.2s.8-1.1 1.1-1.8.4-1.5.4-2.4V15.8h2.8v12.4c0 1.2-.2 2.3-.6 3.3-.4 1-.9 1.9-1.6 2.6-.7.7-1.6 1.3-2.6 1.7-1 .4-2.1.6-3.4.6-1.3 0-2.4-.2-3.4-.6-1-.4-1.9-1-2.6-1.7-.7-.7-1.2-1.6-1.6-2.6-.4-1-.6-2.1-.6-3.3V15.8h2.8v12.4c0 .9.1 1.6.4 2.4.2.7.6 1.3 1.1 1.8s1 .9 1.7 1.2c.5.4 1.2.5 2.1.5zM132.7 32.1c.2 0 .3.1.4.2l1.1 1.2c-.8 1-1.9 1.7-3 2.3-1.2.5-2.6.8-4.3.8-1.5 0-2.8-.3-4-.8-1.2-.5-2.2-1.2-3.1-2.1-.8-.9-1.5-2-2-3.3-.5-1.3-.7-2.7-.7-4.2s.2-3 .7-4.2c.5-1.3 1.2-2.4 2-3.3.9-.9 1.9-1.6 3.2-2.1 1.2-.5 2.6-.8 4.1-.8 1.5 0 2.7.2 3.9.7 1.1.5 2.1 1.1 2.9 1.9l-.9 1.3c-.1.1-.1.2-.2.2-.1.1-.2.1-.4.1s-.4-.1-.6-.3-.6-.4-1-.6-.9-.4-1.5-.6c-.6-.2-1.3-.3-2.2-.3-1.1 0-2 .2-2.9.5-.9.4-1.6.9-2.3 1.6-.6.7-1.1 1.5-1.5 2.5-.4 1-.5 2.1-.5 3.4 0 1.3.2 2.4.5 3.4.4 1 .9 1.8 1.5 2.5s1.4 1.2 2.2 1.6c.9.4 1.8.5 2.8.5.6 0 1.2 0 1.6-.1.5-.1.9-.2 1.4-.3.4-.2.8-.3 1.2-.6s.7-.5 1.1-.8c.1-.3.3-.3.5-.3zM162.5 15.8v20.5h-2.8V27h-11v9.3h-2.8V15.8h2.8V25h11v-9.1h2.8zM188.9 34v2.3h-12.6V15.8h12.6v2.3h-9.8v6.8h8v2.2h-8v7h9.8zM217.9 15.8l-8.3 20.5h-2.5l-8.3-20.5h2.2c.2 0 .4.1.6.2.2.1.3.3.3.5l5.8 14.4c.1.3.2.7.4 1.1l.3 1.2.3-1.2c.1-.4.2-.7.3-1.1l5.7-14.4c.1-.2.2-.3.3-.4.2-.1.4-.2.6-.2h2.3zM244.3 36.3h-2.1c-.2 0-.4-.1-.6-.2s-.3-.3-.3-.5l-1.9-4.9h-9.2l-1.9 4.9c-.1.2-.2.3-.3.5-.2.1-.4.2-.6.2h-2.1l8.2-20.5h2.8l8 20.5zm-5.8-7.6l-3.2-8.3c-.1-.2-.2-.5-.3-.9-.1-.3-.2-.7-.3-1-.2.8-.4 1.4-.6 1.9l-3.2 8.3h7.6z"
    />
  </g>
</svg>
